<mxfile host="app.diagrams.net" modified="2021-09-23T23:28:06.975Z" agent="5.0 (Windows NT 10.0; Win64; x64) AppleWebKit/537.36 (KHTML, like Gecko) Chrome/93.0.4577.82 Safari/537.36" etag="NLKH22E1ekSsAq1uEaWb" version="15.3.1" type="github">
  <diagram name="Page-1" id="099fd60b-425b-db50-ffb0-6b813814b670">
    <mxGraphModel dx="852" dy="397" grid="1" gridSize="10" guides="1" tooltips="1" connect="1" arrows="1" fold="1" page="1" pageScale="1" pageWidth="850" pageHeight="1100" background="#FFFFFF" math="0" shadow="0">
      <root>
        <mxCell id="0" />
        <mxCell id="1" parent="0" />
        <mxCell id="DB4W7_MfknzmHW4euDGk-5" value="" style="whiteSpace=wrap;html=1;aspect=fixed;" parent="1" vertex="1">
          <mxGeometry x="160" y="320" width="170" height="170" as="geometry" />
        </mxCell>
        <mxCell id="DB4W7_MfknzmHW4euDGk-9" value="" style="endArrow=none;html=1;shadow=0;strokeColor=#005700;fillColor=#008A00;strokeWidth=4;" parent="1" edge="1">
          <mxGeometry width="50" height="50" relative="1" as="geometry">
            <mxPoint x="160" y="335.13" as="sourcePoint" />
            <mxPoint x="180" y="335" as="targetPoint" />
          </mxGeometry>
        </mxCell>
        <mxCell id="DB4W7_MfknzmHW4euDGk-11" value="" style="endArrow=none;html=1;shadow=0;strokeColor=#005700;fillColor=#008A00;strokeWidth=4;" parent="1" edge="1">
          <mxGeometry width="50" height="50" relative="1" as="geometry">
            <mxPoint x="160" y="354.5" as="sourcePoint" />
            <mxPoint x="180" y="354" as="targetPoint" />
          </mxGeometry>
        </mxCell>
        <mxCell id="DB4W7_MfknzmHW4euDGk-21" value="" style="endArrow=none;html=1;shadow=0;strokeColor=#005700;fillColor=#008A00;strokeWidth=4;" parent="1" edge="1">
          <mxGeometry width="50" height="50" relative="1" as="geometry">
            <mxPoint x="160" y="335.13" as="sourcePoint" />
            <mxPoint x="180" y="335" as="targetPoint" />
          </mxGeometry>
        </mxCell>
        <mxCell id="DB4W7_MfknzmHW4euDGk-22" value="" style="endArrow=none;html=1;shadow=0;strokeColor=#005700;fillColor=#008A00;strokeWidth=4;" parent="1" edge="1">
          <mxGeometry width="50" height="50" relative="1" as="geometry">
            <mxPoint x="160" y="354.5" as="sourcePoint" />
            <mxPoint x="180" y="354" as="targetPoint" />
          </mxGeometry>
        </mxCell>
        <mxCell id="DB4W7_MfknzmHW4euDGk-23" value="" style="endArrow=none;html=1;shadow=0;strokeColor=#005700;fillColor=#008A00;strokeWidth=4;" parent="1" edge="1">
          <mxGeometry width="50" height="50" relative="1" as="geometry">
            <mxPoint x="160" y="375" as="sourcePoint" />
            <mxPoint x="180" y="375" as="targetPoint" />
          </mxGeometry>
        </mxCell>
        <mxCell id="DB4W7_MfknzmHW4euDGk-24" value="" style="endArrow=none;html=1;shadow=0;strokeColor=#005700;fillColor=#008A00;strokeWidth=4;" parent="1" edge="1">
          <mxGeometry width="50" height="50" relative="1" as="geometry">
            <mxPoint x="160" y="395" as="sourcePoint" />
            <mxPoint x="180" y="395" as="targetPoint" />
          </mxGeometry>
        </mxCell>
        <mxCell id="DB4W7_MfknzmHW4euDGk-25" value="" style="endArrow=none;html=1;shadow=0;strokeColor=#005700;fillColor=#008A00;strokeWidth=4;" parent="1" edge="1">
          <mxGeometry width="50" height="50" relative="1" as="geometry">
            <mxPoint x="160" y="415" as="sourcePoint" />
            <mxPoint x="180" y="415" as="targetPoint" />
          </mxGeometry>
        </mxCell>
        <mxCell id="DB4W7_MfknzmHW4euDGk-26" value="" style="endArrow=none;html=1;shadow=0;strokeColor=#005700;fillColor=#008A00;strokeWidth=4;" parent="1" edge="1">
          <mxGeometry width="50" height="50" relative="1" as="geometry">
            <mxPoint x="160" y="455" as="sourcePoint" />
            <mxPoint x="180" y="455" as="targetPoint" />
          </mxGeometry>
        </mxCell>
        <mxCell id="DB4W7_MfknzmHW4euDGk-28" value="" style="endArrow=none;html=1;shadow=0;strokeColor=#005700;fillColor=#008A00;strokeWidth=4;" parent="1" edge="1">
          <mxGeometry width="50" height="50" relative="1" as="geometry">
            <mxPoint x="160" y="435" as="sourcePoint" />
            <mxPoint x="180" y="435" as="targetPoint" />
          </mxGeometry>
        </mxCell>
        <mxCell id="DB4W7_MfknzmHW4euDGk-29" value="" style="endArrow=none;html=1;shadow=0;strokeColor=#005700;fillColor=#008A00;strokeWidth=4;" parent="1" edge="1">
          <mxGeometry width="50" height="50" relative="1" as="geometry">
            <mxPoint x="310" y="335" as="sourcePoint" />
            <mxPoint x="330" y="335" as="targetPoint" />
          </mxGeometry>
        </mxCell>
        <mxCell id="DB4W7_MfknzmHW4euDGk-30" value="" style="endArrow=none;html=1;shadow=0;strokeColor=#005700;fillColor=#008A00;strokeWidth=4;" parent="1" edge="1">
          <mxGeometry width="50" height="50" relative="1" as="geometry">
            <mxPoint x="310" y="374" as="sourcePoint" />
            <mxPoint x="330" y="374.5" as="targetPoint" />
          </mxGeometry>
        </mxCell>
        <mxCell id="DB4W7_MfknzmHW4euDGk-33" value="" style="rounded=0;whiteSpace=wrap;html=1;" parent="1" vertex="1">
          <mxGeometry x="350" y="560" width="90" height="40" as="geometry" />
        </mxCell>
        <mxCell id="DB4W7_MfknzmHW4euDGk-36" value="" style="rounded=0;whiteSpace=wrap;html=1;" parent="1" vertex="1">
          <mxGeometry x="680" y="520" width="120" height="80" as="geometry" />
        </mxCell>
        <mxCell id="DB4W7_MfknzmHW4euDGk-37" value="" style="endArrow=none;html=1;shadow=0;strokeColor=#005700;fillColor=#008A00;strokeWidth=4;" parent="1" edge="1">
          <mxGeometry width="50" height="50" relative="1" as="geometry">
            <mxPoint x="680" y="540" as="sourcePoint" />
            <mxPoint x="700" y="540" as="targetPoint" />
          </mxGeometry>
        </mxCell>
        <mxCell id="DB4W7_MfknzmHW4euDGk-39" value="" style="endArrow=none;html=1;shadow=0;strokeColor=#005700;fillColor=#008A00;strokeWidth=4;" parent="1" edge="1">
          <mxGeometry width="50" height="50" relative="1" as="geometry">
            <mxPoint x="680" y="560.87" as="sourcePoint" />
            <mxPoint x="700" y="561" as="targetPoint" />
          </mxGeometry>
        </mxCell>
        <mxCell id="DB4W7_MfknzmHW4euDGk-40" value="" style="endArrow=none;html=1;shadow=0;strokeColor=#005700;fillColor=#008A00;strokeWidth=4;" parent="1" edge="1">
          <mxGeometry width="50" height="50" relative="1" as="geometry">
            <mxPoint x="680" y="579.62" as="sourcePoint" />
            <mxPoint x="700" y="579.75" as="targetPoint" />
          </mxGeometry>
        </mxCell>
        <mxCell id="DB4W7_MfknzmHW4euDGk-45" value="" style="endArrow=none;html=1;shadow=0;strokeColor=#005700;fillColor=#008A00;strokeWidth=4;" parent="1" edge="1">
          <mxGeometry width="50" height="50" relative="1" as="geometry">
            <mxPoint x="780" y="540" as="sourcePoint" />
            <mxPoint x="800" y="540" as="targetPoint" />
          </mxGeometry>
        </mxCell>
        <mxCell id="DB4W7_MfknzmHW4euDGk-47" value="" style="shape=trapezoid;perimeter=trapezoidPerimeter;whiteSpace=wrap;html=1;fixedSize=1;rotation=90;" parent="1" vertex="1">
          <mxGeometry x="30" y="626.25" width="70" height="30" as="geometry" />
        </mxCell>
        <mxCell id="DB4W7_MfknzmHW4euDGk-48" value="&lt;b&gt;1&lt;/b&gt;" style="text;html=1;resizable=0;autosize=1;align=center;verticalAlign=middle;points=[];fillColor=none;strokeColor=none;rounded=0;" parent="1" vertex="1">
          <mxGeometry x="54.379999999999995" y="621.25" width="20" height="20" as="geometry" />
        </mxCell>
        <mxCell id="DB4W7_MfknzmHW4euDGk-49" value="&lt;b&gt;0&lt;/b&gt;" style="text;html=1;resizable=0;autosize=1;align=center;verticalAlign=middle;points=[];fillColor=none;strokeColor=none;rounded=0;" parent="1" vertex="1">
          <mxGeometry x="54.379999999999995" y="641.25" width="20" height="20" as="geometry" />
        </mxCell>
        <mxCell id="DB4W7_MfknzmHW4euDGk-50" value="" style="rounded=0;whiteSpace=wrap;html=1;" parent="1" vertex="1">
          <mxGeometry x="20" y="240" width="100" height="40" as="geometry" />
        </mxCell>
        <mxCell id="DB4W7_MfknzmHW4euDGk-51" value="" style="endArrow=none;html=1;shadow=0;strokeColor=#005700;fillColor=#008A00;strokeWidth=4;" parent="1" edge="1">
          <mxGeometry width="50" height="50" relative="1" as="geometry">
            <mxPoint x="20" y="269.5" as="sourcePoint" />
            <mxPoint x="40" y="270" as="targetPoint" />
          </mxGeometry>
        </mxCell>
        <mxCell id="DB4W7_MfknzmHW4euDGk-52" value="" style="endArrow=none;html=1;shadow=0;strokeColor=#005700;fillColor=#008A00;strokeWidth=4;" parent="1" edge="1">
          <mxGeometry width="50" height="50" relative="1" as="geometry">
            <mxPoint x="101" y="270" as="sourcePoint" />
            <mxPoint x="120" y="270" as="targetPoint" />
          </mxGeometry>
        </mxCell>
        <mxCell id="DB4W7_MfknzmHW4euDGk-53" value="PC&#39;" style="text;html=1;resizable=0;autosize=1;align=center;verticalAlign=middle;points=[];fillColor=none;strokeColor=none;rounded=0;" parent="1" vertex="1">
          <mxGeometry x="40" y="260" width="30" height="20" as="geometry" />
        </mxCell>
        <mxCell id="DB4W7_MfknzmHW4euDGk-54" value="PC" style="text;html=1;resizable=0;autosize=1;align=center;verticalAlign=middle;points=[];fillColor=none;strokeColor=none;rounded=0;" parent="1" vertex="1">
          <mxGeometry x="70" y="260" width="30" height="20" as="geometry" />
        </mxCell>
        <mxCell id="DB4W7_MfknzmHW4euDGk-58" value="" style="endArrow=none;html=1;shadow=0;strokeColor=#005700;fillColor=#008A00;strokeWidth=4;" parent="1" edge="1">
          <mxGeometry width="50" height="50" relative="1" as="geometry">
            <mxPoint x="20" y="250" as="sourcePoint" />
            <mxPoint x="40" y="250" as="targetPoint" />
          </mxGeometry>
        </mxCell>
        <mxCell id="DB4W7_MfknzmHW4euDGk-59" value="&lt;span style=&quot;font-weight: normal&quot;&gt;clk&lt;/span&gt;" style="text;html=1;resizable=0;autosize=1;align=center;verticalAlign=middle;points=[];fillColor=none;strokeColor=none;rounded=0;fontStyle=1" parent="1" vertex="1">
          <mxGeometry x="40" y="240" width="30" height="20" as="geometry" />
        </mxCell>
        <mxCell id="Cc3cPxVElPXbflXO5Y1s-5" value="data A" style="text;html=1;strokeColor=none;fillColor=none;align=center;verticalAlign=middle;whiteSpace=wrap;rounded=0;" vertex="1" parent="1">
          <mxGeometry x="180" y="326.25" width="50" height="20" as="geometry" />
        </mxCell>
        <mxCell id="Cc3cPxVElPXbflXO5Y1s-7" value="data B" style="text;html=1;strokeColor=none;fillColor=none;align=center;verticalAlign=middle;whiteSpace=wrap;rounded=0;" vertex="1" parent="1">
          <mxGeometry x="180" y="346.25" width="50" height="20" as="geometry" />
        </mxCell>
        <mxCell id="Cc3cPxVElPXbflXO5Y1s-8" value="address A" style="text;html=1;strokeColor=none;fillColor=none;align=center;verticalAlign=middle;whiteSpace=wrap;rounded=0;" vertex="1" parent="1">
          <mxGeometry x="180" y="365" width="70" height="20" as="geometry" />
        </mxCell>
        <mxCell id="Cc3cPxVElPXbflXO5Y1s-9" value="address B" style="text;html=1;strokeColor=none;fillColor=none;align=center;verticalAlign=middle;whiteSpace=wrap;rounded=0;" vertex="1" parent="1">
          <mxGeometry x="180" y="385" width="70" height="20" as="geometry" />
        </mxCell>
        <mxCell id="Cc3cPxVElPXbflXO5Y1s-10" value="WE A" style="text;html=1;strokeColor=none;fillColor=none;align=center;verticalAlign=middle;whiteSpace=wrap;rounded=0;" vertex="1" parent="1">
          <mxGeometry x="180" y="405" width="50" height="20" as="geometry" />
        </mxCell>
        <mxCell id="Cc3cPxVElPXbflXO5Y1s-11" value="WE B" style="text;html=1;strokeColor=none;fillColor=none;align=center;verticalAlign=middle;whiteSpace=wrap;rounded=0;" vertex="1" parent="1">
          <mxGeometry x="180" y="425" width="50" height="20" as="geometry" />
        </mxCell>
        <mxCell id="Cc3cPxVElPXbflXO5Y1s-12" value="clk" style="text;html=1;strokeColor=none;fillColor=none;align=center;verticalAlign=middle;whiteSpace=wrap;rounded=0;" vertex="1" parent="1">
          <mxGeometry x="160" y="445" width="70" height="20" as="geometry" />
        </mxCell>
        <mxCell id="Cc3cPxVElPXbflXO5Y1s-13" value="RD_A" style="text;html=1;strokeColor=none;fillColor=none;align=center;verticalAlign=middle;whiteSpace=wrap;rounded=0;" vertex="1" parent="1">
          <mxGeometry x="270" y="326.25" width="40" height="20" as="geometry" />
        </mxCell>
        <mxCell id="Cc3cPxVElPXbflXO5Y1s-14" value="RD_B" style="text;html=1;strokeColor=none;fillColor=none;align=center;verticalAlign=middle;whiteSpace=wrap;rounded=0;" vertex="1" parent="1">
          <mxGeometry x="255" y="365" width="70" height="20" as="geometry" />
        </mxCell>
        <mxCell id="Cc3cPxVElPXbflXO5Y1s-15" value="memory" style="text;html=1;strokeColor=none;fillColor=none;align=center;verticalAlign=middle;whiteSpace=wrap;rounded=0;fontColor=#A9C4EB;" vertex="1" parent="1">
          <mxGeometry x="260" y="465" width="70" height="20" as="geometry" />
        </mxCell>
        <mxCell id="Cc3cPxVElPXbflXO5Y1s-16" value="" style="whiteSpace=wrap;html=1;aspect=fixed;" vertex="1" parent="1">
          <mxGeometry x="470" y="320" width="170" height="170" as="geometry" />
        </mxCell>
        <mxCell id="Cc3cPxVElPXbflXO5Y1s-17" value="" style="endArrow=none;html=1;shadow=0;strokeColor=#005700;fillColor=#008A00;strokeWidth=4;" edge="1" parent="1">
          <mxGeometry width="50" height="50" relative="1" as="geometry">
            <mxPoint x="470" y="335.13000000000005" as="sourcePoint" />
            <mxPoint x="490" y="335.00000000000006" as="targetPoint" />
          </mxGeometry>
        </mxCell>
        <mxCell id="Cc3cPxVElPXbflXO5Y1s-18" value="" style="endArrow=none;html=1;shadow=0;strokeColor=#005700;fillColor=#008A00;strokeWidth=4;" edge="1" parent="1">
          <mxGeometry width="50" height="50" relative="1" as="geometry">
            <mxPoint x="470" y="354.49999999999994" as="sourcePoint" />
            <mxPoint x="490" y="354" as="targetPoint" />
          </mxGeometry>
        </mxCell>
        <mxCell id="Cc3cPxVElPXbflXO5Y1s-19" value="" style="endArrow=none;html=1;shadow=0;strokeColor=#005700;fillColor=#008A00;strokeWidth=4;" edge="1" parent="1">
          <mxGeometry width="50" height="50" relative="1" as="geometry">
            <mxPoint x="470" y="335.13000000000005" as="sourcePoint" />
            <mxPoint x="490" y="335.00000000000006" as="targetPoint" />
          </mxGeometry>
        </mxCell>
        <mxCell id="Cc3cPxVElPXbflXO5Y1s-20" value="" style="endArrow=none;html=1;shadow=0;strokeColor=#005700;fillColor=#008A00;strokeWidth=4;" edge="1" parent="1">
          <mxGeometry width="50" height="50" relative="1" as="geometry">
            <mxPoint x="470" y="354.49999999999994" as="sourcePoint" />
            <mxPoint x="490" y="354" as="targetPoint" />
          </mxGeometry>
        </mxCell>
        <mxCell id="Cc3cPxVElPXbflXO5Y1s-21" value="" style="endArrow=none;html=1;shadow=0;strokeColor=#005700;fillColor=#008A00;strokeWidth=4;" edge="1" parent="1">
          <mxGeometry width="50" height="50" relative="1" as="geometry">
            <mxPoint x="470" y="375.00000000000006" as="sourcePoint" />
            <mxPoint x="490" y="375.00000000000006" as="targetPoint" />
          </mxGeometry>
        </mxCell>
        <mxCell id="Cc3cPxVElPXbflXO5Y1s-22" value="" style="endArrow=none;html=1;shadow=0;strokeColor=#005700;fillColor=#008A00;strokeWidth=4;" edge="1" parent="1">
          <mxGeometry width="50" height="50" relative="1" as="geometry">
            <mxPoint x="470" y="395.00000000000006" as="sourcePoint" />
            <mxPoint x="490" y="395.00000000000006" as="targetPoint" />
          </mxGeometry>
        </mxCell>
        <mxCell id="Cc3cPxVElPXbflXO5Y1s-23" value="" style="endArrow=none;html=1;shadow=0;strokeColor=#005700;fillColor=#008A00;strokeWidth=4;" edge="1" parent="1">
          <mxGeometry width="50" height="50" relative="1" as="geometry">
            <mxPoint x="470" y="415" as="sourcePoint" />
            <mxPoint x="490" y="415" as="targetPoint" />
          </mxGeometry>
        </mxCell>
        <mxCell id="Cc3cPxVElPXbflXO5Y1s-24" value="" style="endArrow=none;html=1;shadow=0;strokeColor=#005700;fillColor=#008A00;strokeWidth=4;" edge="1" parent="1">
          <mxGeometry width="50" height="50" relative="1" as="geometry">
            <mxPoint x="470" y="455" as="sourcePoint" />
            <mxPoint x="490" y="455" as="targetPoint" />
          </mxGeometry>
        </mxCell>
        <mxCell id="Cc3cPxVElPXbflXO5Y1s-25" value="" style="endArrow=none;html=1;shadow=0;strokeColor=#005700;fillColor=#008A00;strokeWidth=4;" edge="1" parent="1">
          <mxGeometry width="50" height="50" relative="1" as="geometry">
            <mxPoint x="470" y="435" as="sourcePoint" />
            <mxPoint x="490" y="435" as="targetPoint" />
          </mxGeometry>
        </mxCell>
        <mxCell id="Cc3cPxVElPXbflXO5Y1s-26" value="" style="endArrow=none;html=1;shadow=0;strokeColor=#005700;fillColor=#008A00;strokeWidth=4;" edge="1" parent="1">
          <mxGeometry width="50" height="50" relative="1" as="geometry">
            <mxPoint x="620" y="335.00000000000006" as="sourcePoint" />
            <mxPoint x="640" y="335.00000000000006" as="targetPoint" />
          </mxGeometry>
        </mxCell>
        <mxCell id="Cc3cPxVElPXbflXO5Y1s-27" value="" style="endArrow=none;html=1;shadow=0;strokeColor=#005700;fillColor=#008A00;strokeWidth=4;" edge="1" parent="1">
          <mxGeometry width="50" height="50" relative="1" as="geometry">
            <mxPoint x="620" y="374" as="sourcePoint" />
            <mxPoint x="640" y="374.49999999999994" as="targetPoint" />
          </mxGeometry>
        </mxCell>
        <mxCell id="Cc3cPxVElPXbflXO5Y1s-28" value="A1" style="text;html=1;strokeColor=none;fillColor=none;align=center;verticalAlign=middle;whiteSpace=wrap;rounded=0;" vertex="1" parent="1">
          <mxGeometry x="490" y="326.25" width="30" height="20" as="geometry" />
        </mxCell>
        <mxCell id="Cc3cPxVElPXbflXO5Y1s-29" value="A2" style="text;html=1;strokeColor=none;fillColor=none;align=center;verticalAlign=middle;whiteSpace=wrap;rounded=0;" vertex="1" parent="1">
          <mxGeometry x="490" y="346.25" width="30" height="20" as="geometry" />
        </mxCell>
        <mxCell id="Cc3cPxVElPXbflXO5Y1s-30" value="A3" style="text;html=1;strokeColor=none;fillColor=none;align=center;verticalAlign=middle;whiteSpace=wrap;rounded=0;" vertex="1" parent="1">
          <mxGeometry x="490" y="365" width="30" height="20" as="geometry" />
        </mxCell>
        <mxCell id="Cc3cPxVElPXbflXO5Y1s-31" value="WD3" style="text;html=1;strokeColor=none;fillColor=none;align=center;verticalAlign=middle;whiteSpace=wrap;rounded=0;" vertex="1" parent="1">
          <mxGeometry x="490" y="385" width="40" height="20" as="geometry" />
        </mxCell>
        <mxCell id="Cc3cPxVElPXbflXO5Y1s-32" value="WE3" style="text;html=1;strokeColor=none;fillColor=none;align=center;verticalAlign=middle;whiteSpace=wrap;rounded=0;" vertex="1" parent="1">
          <mxGeometry x="490" y="405" width="40" height="20" as="geometry" />
        </mxCell>
        <mxCell id="Cc3cPxVElPXbflXO5Y1s-33" value="R15" style="text;html=1;strokeColor=none;fillColor=none;align=center;verticalAlign=middle;whiteSpace=wrap;rounded=0;" vertex="1" parent="1">
          <mxGeometry x="490" y="425" width="40" height="20" as="geometry" />
        </mxCell>
        <mxCell id="Cc3cPxVElPXbflXO5Y1s-34" value="clk" style="text;html=1;strokeColor=none;fillColor=none;align=center;verticalAlign=middle;whiteSpace=wrap;rounded=0;" vertex="1" parent="1">
          <mxGeometry x="470" y="445" width="70" height="20" as="geometry" />
        </mxCell>
        <mxCell id="Cc3cPxVElPXbflXO5Y1s-35" value="RD1" style="text;html=1;strokeColor=none;fillColor=none;align=center;verticalAlign=middle;whiteSpace=wrap;rounded=0;" vertex="1" parent="1">
          <mxGeometry x="580" y="326.25" width="40" height="20" as="geometry" />
        </mxCell>
        <mxCell id="Cc3cPxVElPXbflXO5Y1s-36" value="RD2" style="text;html=1;strokeColor=none;fillColor=none;align=center;verticalAlign=middle;whiteSpace=wrap;rounded=0;" vertex="1" parent="1">
          <mxGeometry x="565" y="365" width="70" height="20" as="geometry" />
        </mxCell>
        <mxCell id="Cc3cPxVElPXbflXO5Y1s-37" value="register file" style="text;html=1;strokeColor=none;fillColor=none;align=center;verticalAlign=middle;whiteSpace=wrap;rounded=0;fontColor=#A9C4EB;" vertex="1" parent="1">
          <mxGeometry x="570" y="465" width="70" height="20" as="geometry" />
        </mxCell>
        <mxCell id="Cc3cPxVElPXbflXO5Y1s-38" value="ALU" style="text;html=1;strokeColor=none;fillColor=none;align=center;verticalAlign=middle;whiteSpace=wrap;rounded=0;fontColor=#A9C4EB;" vertex="1" parent="1">
          <mxGeometry x="755" y="580" width="45" height="20" as="geometry" />
        </mxCell>
        <mxCell id="Cc3cPxVElPXbflXO5Y1s-39" value="src1" style="text;html=1;strokeColor=none;fillColor=none;align=center;verticalAlign=middle;whiteSpace=wrap;rounded=0;" vertex="1" parent="1">
          <mxGeometry x="700" y="550" width="40" height="20" as="geometry" />
        </mxCell>
        <mxCell id="Cc3cPxVElPXbflXO5Y1s-41" value="&lt;div style=&quot;text-align: center&quot;&gt;&lt;span&gt;&lt;font color=&quot;#000000&quot; face=&quot;helvetica&quot;&gt;src2&lt;/font&gt;&lt;/span&gt;&lt;/div&gt;" style="text;whiteSpace=wrap;html=1;fontColor=#A9C4EB;" vertex="1" parent="1">
          <mxGeometry x="705" y="565" width="50" height="30" as="geometry" />
        </mxCell>
        <mxCell id="Cc3cPxVElPXbflXO5Y1s-42" value="&lt;span style=&quot;color: rgb(0 , 0 , 0) ; font-family: &amp;#34;helvetica&amp;#34; ; font-size: 12px ; font-style: normal ; font-weight: 400 ; letter-spacing: normal ; text-align: center ; text-indent: 0px ; text-transform: none ; word-spacing: 0px ; background-color: rgb(248 , 249 , 250) ; display: inline ; float: none&quot;&gt;ctrl&lt;/span&gt;" style="text;whiteSpace=wrap;html=1;fontColor=#A9C4EB;" vertex="1" parent="1">
          <mxGeometry x="705" y="526.25" width="50" height="30" as="geometry" />
        </mxCell>
        <mxCell id="Cc3cPxVElPXbflXO5Y1s-43" value="&lt;span style=&quot;color: rgb(0 , 0 , 0) ; font-family: &amp;#34;helvetica&amp;#34; ; font-size: 12px ; font-style: normal ; font-weight: 400 ; letter-spacing: normal ; text-align: center ; text-indent: 0px ; text-transform: none ; word-spacing: 0px ; background-color: rgb(248 , 249 , 250) ; display: inline ; float: none&quot;&gt;result&lt;/span&gt;" style="text;whiteSpace=wrap;html=1;fontColor=#A9C4EB;" vertex="1" parent="1">
          <mxGeometry x="745" y="526.25" width="50" height="30" as="geometry" />
        </mxCell>
        <mxCell id="Cc3cPxVElPXbflXO5Y1s-44" value="Immediate" style="text;html=1;strokeColor=none;fillColor=none;align=center;verticalAlign=middle;whiteSpace=wrap;rounded=0;fontColor=#A9C4EB;" vertex="1" parent="1">
          <mxGeometry x="360" y="570" width="70" height="20" as="geometry" />
        </mxCell>
        <mxCell id="Cc3cPxVElPXbflXO5Y1s-45" value="" style="endArrow=none;html=1;fontColor=#A9C4EB;" edge="1" parent="1">
          <mxGeometry width="50" height="50" relative="1" as="geometry">
            <mxPoint x="160" y="333" as="sourcePoint" />
            <mxPoint x="120" y="270" as="targetPoint" />
            <Array as="points">
              <mxPoint x="140" y="333" />
              <mxPoint x="140" y="270" />
            </Array>
          </mxGeometry>
        </mxCell>
        <mxCell id="Cc3cPxVElPXbflXO5Y1s-46" value="" style="rounded=0;whiteSpace=wrap;html=1;fontColor=#1A1A1A;strokeColor=#1A1A1A;" vertex="1" parent="1">
          <mxGeometry x="160" y="560.63" width="40" height="38.75" as="geometry" />
        </mxCell>
        <mxCell id="Cc3cPxVElPXbflXO5Y1s-47" value="+" style="text;html=1;strokeColor=none;fillColor=none;align=center;verticalAlign=middle;whiteSpace=wrap;rounded=0;fontColor=#1A1A1A;" vertex="1" parent="1">
          <mxGeometry x="170" y="570" width="20" height="20" as="geometry" />
        </mxCell>
        <mxCell id="Cc3cPxVElPXbflXO5Y1s-50" value="" style="endArrow=none;html=1;shadow=0;strokeColor=#005700;fillColor=#008A00;strokeWidth=4;exitX=0;exitY=0.25;exitDx=0;exitDy=0;" edge="1" parent="1" source="Cc3cPxVElPXbflXO5Y1s-46">
          <mxGeometry width="50" height="50" relative="1" as="geometry">
            <mxPoint x="180" y="630" as="sourcePoint" />
            <mxPoint x="170" y="570" as="targetPoint" />
            <Array as="points" />
          </mxGeometry>
        </mxCell>
        <mxCell id="Cc3cPxVElPXbflXO5Y1s-51" value="" style="endArrow=none;html=1;shadow=0;strokeColor=#005700;fillColor=#008A00;strokeWidth=4;exitX=0;exitY=0.75;exitDx=0;exitDy=0;" edge="1" parent="1" source="Cc3cPxVElPXbflXO5Y1s-46">
          <mxGeometry width="50" height="50" relative="1" as="geometry">
            <mxPoint x="170.0000000000001" y="580.3175" as="sourcePoint" />
            <mxPoint x="170" y="590" as="targetPoint" />
            <Array as="points" />
          </mxGeometry>
        </mxCell>
        <mxCell id="Cc3cPxVElPXbflXO5Y1s-52" value="" style="endArrow=none;html=1;shadow=0;strokeColor=#005700;fillColor=#008A00;strokeWidth=4;exitX=1;exitY=0.5;exitDx=0;exitDy=0;" edge="1" parent="1" source="Cc3cPxVElPXbflXO5Y1s-47">
          <mxGeometry width="50" height="50" relative="1" as="geometry">
            <mxPoint x="180.0000000000001" y="590.3175" as="sourcePoint" />
            <mxPoint x="200" y="580" as="targetPoint" />
            <Array as="points">
              <mxPoint x="200" y="580" />
            </Array>
          </mxGeometry>
        </mxCell>
      </root>
    </mxGraphModel>
  </diagram>
</mxfile>
